<?xml version="1.0" encoding="utf-8"?><svg xmlns="http://www.w3.org/2000/svg" xmlns:xlink="http://www.w3.org/1999/xlink"><symbol viewBox="0 0 512 512" id="briefcase" xmlns="http://www.w3.org/2000/svg"><path d="M453.1 92.3h-98.8v-25c0-31.3-25-56.3-56.2-56.3h-86.3c-31.2 0-56.2 25-56.2 56.3v25H58.9c-27 0-47.9 21.9-47.9 48V453c0 26.1 21.8 48 47.9 48h393.2c26 0 47.9-21.9 48.9-48V140.3c0-27.1-21.8-48-47.9-48zm-277.7-25c0-19.8 16.6-36.5 36.4-36.5h86.3c19.8 0 36.4 16.7 36.4 36.5v25H175.4v-25zM480.2 453c0 14.6-12.5 27.1-27 27.1H58.9c-14.6 0-27-12.5-27-27.1V140.3c0-14.6 12.5-27.1 27-27.1h394.3c14.6 0 27 12.5 27 27.1V453z"/><path d="M313.7 312.3c-10.4-8.3-26-14.6-46.8-19.8h-1v-52.1c14.6 2.1 27 7.3 39.5 15.6l17.7-26.1c-17.7-12.5-37.5-19.8-57.2-20.9v-14.6h-17.7V208c-17.7 1-32.3 6.3-43.7 16.7-11.4 10.4-16.6 24-16.6 39.6 0 16.7 5.2 28.1 14.6 36.5 9.4 8.3 25 14.6 45.8 19.8v54.2c-16.6-2.1-32.3-10.4-47.9-24l-19.8 24c19.8 17.7 42.7 28.1 67.6 30.2v19.8h17.7V405c18.7-1 34.3-6.3 45.8-16.7s16.6-22.9 16.6-39.6c0-15.6-4.2-28.1-14.6-36.4zm-66.5-25c-10.4-3.1-16.6-7.3-20.8-10.4-3.1-3.1-5.2-8.3-5.2-14.6 0-6.3 2.1-11.5 7.3-15.6 5.2-4.2 11.4-6.3 18.7-7.3v47.9zm39.5 80.3c-5.2 4.2-12.5 7.3-21.8 8.3v-50c11.4 3.1 18.7 6.3 22.9 10.4 4.2 4.2 6.2 9.4 6.2 15.6 0 6.3-2.1 11.5-7.3 15.7z"/></symbol><symbol viewBox="0 0 512.005 512.005" id="landing" xmlns="http://www.w3.org/2000/svg"><path d="M162.677 199.606a8.514 8.514 0 0 0-7.031-4.633l-71.786-4.787c-3.72-.367-7.159 1.937-8.516 5.401L23.593 327.845a8.524 8.524 0 0 0 2.782 9.898 8.505 8.505 0 0 0 5.162 1.741c1.8 0 3.601-.563 5.12-1.706l42.954-32.211 25.01 5a8.529 8.529 0 0 0 9.642-5.324c13.431-35.181 29.6-67.895 48.039-97.222a8.534 8.534 0 0 0 .375-8.415zm-61.743 92.819l-21.724-4.343a8.595 8.595 0 0 0-6.792 1.544l-22.006 16.502 38.542-98.502 51.521 3.43c-14.847 25.13-28.107 52.417-39.541 81.369zm220.888 135.731l-4.787-71.795a8.545 8.545 0 0 0-4.642-7.04 8.512 8.512 0 0 0-8.413.375c-29.336 18.439-62.042 34.609-97.222 48.039a8.518 8.518 0 0 0-5.324 9.642l5 25.01-32.211 42.945a8.538 8.538 0 0 0 6.826 13.661 9.025 9.025 0 0 0 3.114-.572l132.258-51.751a8.533 8.533 0 0 0 5.401-8.514zM205.87 461.579l16.502-22.006a8.537 8.537 0 0 0 1.536-6.792l-4.343-21.716c28.96-11.434 56.239-24.694 81.368-39.541l3.439 51.512-98.502 38.543zm41.58-205.572h-57.494a8.546 8.546 0 0 0-7.458 4.386l-72.162 129.664a8.543 8.543 0 0 0 1.536 10.291 8.542 8.542 0 0 0 5.922 2.389 8.421 8.421 0 0 0 4.411-1.237l129.664-78.467a8.527 8.527 0 0 0 4.113-7.295V264.54c.001-4.71-3.822-8.533-8.532-8.533zm-8.532 54.926l-98.033 59.328 54.081-97.18v-.009h43.952v37.861z"/><path d="M511.574 8.224a8.544 8.544 0 0 0-7.799-7.799C500.942.203 219.95-19.414 98.324 299.149a8.525 8.525 0 0 0 1.937 9.079l40.573 40.573c1.903 1.903 4.565 2.773 7.236 2.415a8.567 8.567 0 0 0 6.272-4.335l40.65-73.808h43.927v37.962l-74.252 46.879a8.558 8.558 0 0 0-3.925 6.272 8.525 8.525 0 0 0 2.449 6.98l40.573 40.573a8.521 8.521 0 0 0 6.033 2.5 8.405 8.405 0 0 0 3.046-.563C531.421 292.041 511.813 11.049 511.574 8.224zm-44.763 151.389c-29.942 74.081-98.46 174.794-254.908 236.136l-29.097-29.097 69.201-43.688a8.553 8.553 0 0 0 3.976-7.219v-51.197a8.536 8.536 0 0 0-8.533-8.533h-57.511a8.54 8.54 0 0 0-7.475 4.42l-37.604 68.279-28.61-28.619C223.021 27.713 450.607 16.569 494.849 17.192c.316 19.899-1.51 76.778-28.038 142.421zM146.166 376.874a8.51 8.51 0 0 0-7.697-3.345 8.54 8.54 0 0 0-3.345-7.697c-12.867-9.727-29.472-12.961-45.573-8.883-17.091 4.343-31.068 15.999-38.338 31.998L.768 499.933a8.52 8.52 0 0 0 1.732 9.565 8.501 8.501 0 0 0 6.033 2.5 8.588 8.588 0 0 0 3.533-.768l110.986-50.454c15.99-7.261 27.646-21.238 31.989-38.329 4.087-16.084.853-32.697-8.875-45.573zm-7.662 41.375c-3.055 12.04-11.263 21.878-22.509 26.998l-90.277 41.034 41.034-90.285c5.111-11.246 14.958-19.455 26.998-22.509a38.611 38.611 0 0 1 9.488-1.195c5.316 0 10.512 1.135 15.248 3.345l-8.123 14.378a8.527 8.527 0 0 0 1.399 10.231 8.517 8.517 0 0 0 10.231 1.399l14.378-8.132c3.498 7.526 4.292 16.22 2.133 24.736z"/><path d="M511.574 8.233a8.545 8.545 0 0 0-7.799-7.799c-3.328-.265-82.427-6.255-175.451 36.597-2.534 1.16-4.335 3.498-4.83 6.246s.393 5.563 2.364 7.534l135.33 135.33a8.534 8.534 0 0 0 6.033 2.5c.503 0 1.007-.043 1.51-.128a8.54 8.54 0 0 0 6.246-4.83c42.86-93.024 36.87-172.131 36.597-175.45zm-47.118 157.028L346.738 47.543c68.1-28.747 127.735-30.727 148.12-30.385.341 20.402-1.579 79.85-30.402 148.103zm-87.615-30.103c-28.696-28.696-75.378-28.696-104.074 0s-28.696 75.378 0 104.074c14.344 14.352 33.193 21.52 52.033 21.52 18.849 0 37.689-7.176 52.041-21.52 28.696-28.696 28.696-75.379 0-104.074zm-12.065 92.008c-22.04 22.04-57.903 22.04-79.943 0s-22.04-57.903 0-79.943c11.016-11.016 25.496-16.528 39.968-16.528s28.952 5.512 39.976 16.528c22.039 22.04 22.039 57.903-.001 79.943z"/><path d="M341.763 204.162c-9.352 9.369-24.574 9.36-33.935 0-9.352-9.36-9.352-24.574 0-33.935 9.352-9.352 24.574-9.36 33.935 0 3.328 3.336 8.738 3.336 12.065 0a8.523 8.523 0 0 0 0-12.065c-15.999-16.007-42.058-16.007-58.065 0-16.008 16.007-16.008 42.058 0 58.065 8.004 8.004 18.525 12.006 29.037 12.006 10.521 0 21.033-4.002 29.028-12.006a8.523 8.523 0 0 0 0-12.065 8.523 8.523 0 0 0-12.065 0z"/></symbol><symbol viewBox="0 0 512 512" id="logo" xmlns="http://www.w3.org/2000/svg"><path d="M512 455.111C512 486.53 486.527 512 455.111 512H56.89C25.472 512 0 486.527 0 455.111V56.89C0 25.472 25.472 0 56.889 0H455.11C486.527 0 512 25.472 512 56.889V455.11z"/><path d="M194.944 351.588h44.544c56.888 0 82.887-41.885 82.887-94.805 0-56.448-26.439-97.452-87.296-97.452h-40.135v192.257zm-66.133-219.15c0-20.295 14.109-33.963 33.949-33.963h73.201c98.788 0 155.221 63.503 155.221 161.394 0 92.601-59.96 152.576-150.812 152.576h-76.729c-14.563 0-34.83-7.936-34.83-33.066V132.437z"/></symbol><symbol viewBox="0 0 512 512" id="shop" xmlns="http://www.w3.org/2000/svg"><path d="M488.468 448.903h-8.532V226.4C499.202 214.003 512 192.386 512 167.822a7.505 7.505 0 0 0-.988-3.721L451.499 59.953a23.587 23.587 0 0 0-20.432-11.857H80.933a23.585 23.585 0 0 0-20.432 11.857L.988 164.101A7.508 7.508 0 0 0 0 167.822c0 24.564 12.798 46.181 32.064 58.578v222.503h-8.532a7.5 7.5 0 0 0 0 15h464.936a7.5 7.5 0 0 0 0-15zM15.517 175.322h24.044a7.5 7.5 0 0 0 0-15H20.424l53.101-92.927a8.551 8.551 0 0 1 7.408-4.299h350.134a8.55 8.55 0 0 1 7.408 4.299l53.1 92.927h-19.141a7.5 7.5 0 0 0-7.5 7.5 7.5 7.5 0 0 0 7.5 7.5h24.048c-3.667 26.584-26.532 47.125-54.108 47.125-27.575 0-50.429-20.543-54.097-47.125h52.096a7.5 7.5 0 0 0 7.5-7.5 7.5 7.5 0 0 0-7.5-7.5H71.631a7.5 7.5 0 0 0 0 15h52.091c-3.668 26.582-26.523 47.125-54.097 47.125-27.576 0-50.441-20.541-54.108-47.125zm356.705 0c-3.668 26.582-26.523 47.125-54.097 47.125-27.575 0-50.429-20.543-54.097-47.125h108.194zm-124.25 0c-3.668 26.582-26.523 47.125-54.097 47.125s-50.429-20.543-54.097-47.125h108.194zm176.882 273.582h-81.193v-25.081h81.193v25.081zm0-40.081h-81.193V271.516h81.193v137.307zm40.082 40.081h-25.081V264.016a7.5 7.5 0 0 0-7.5-7.5h-96.193a7.5 7.5 0 0 0-7.5 7.5v184.887H47.064V233.674a69.289 69.289 0 0 0 22.561 3.773c27.095 0 50.624-15.556 62.125-38.207 11.501 22.65 35.03 38.207 62.125 38.207S244.499 221.891 256 199.24c11.501 22.65 35.03 38.207 62.125 38.207s50.624-15.556 62.125-38.207c11.501 22.65 35.03 38.207 62.125 38.207 7.896 0 15.48-1.34 22.561-3.772v215.229z"/><path d="M296.081 256.516H79.645a7.5 7.5 0 0 0-7.5 7.5v152.307a7.5 7.5 0 0 0 7.5 7.5h216.436a7.5 7.5 0 0 0 7.5-7.5V264.016c0-4.143-3.357-7.5-7.5-7.5zm-7.5 152.307H87.145V271.516h201.436v137.307z"/></symbol><symbol viewBox="0 0 512 512" id="television" xmlns="http://www.w3.org/2000/svg"><path d="M512 421V31H0v390h181v30H91v30h330v-30h-90v-30h181zm-211 30h-90v-30h90v30zM30 391V61h452v330H30z"/><path d="M406.047 192.233l-103.67-15.056L256 83.211l-46.377 93.965-103.67 15.055 75.015 73.149-17.705 103.28L256 319.896l92.737 48.766-17.705-103.28 75.015-73.149zM256 286.001l-52.897 27.816L213.2 254.91l-42.788-41.724 59.133-8.587L256 150.996l26.455 53.603 59.133 8.587L298.8 254.91l10.097 58.907L256 286.001z"/></symbol><symbol viewBox="0 0 260.666 260.666" id="visit-card" xmlns="http://www.w3.org/2000/svg"><path d="M236.666 40.882H24c-13.233 0-24 10.767-24 24v130.902c0 13.233 10.767 24 24 24h212.666c13.233 0 24-10.767 24-24V64.882c0-13.234-10.767-24-24-24zm9 154.902c0 4.962-4.037 9-9 9H24c-4.963 0-9-4.038-9-9V64.882c0-4.962 4.037-9 9-9h212.666c4.963 0 9 4.038 9 9v130.902z"/><path d="M216.04 83.703h-68.933a6 6 0 0 0 0 12h68.933a6 6 0 0 0 0-12zm0 81.26h-68.933a6 6 0 1 0 0 12h68.933a6 6 0 0 0 0-12zm0-46.552h-41.718a6 6 0 0 0 0 12h41.718a6 6 0 0 0 0-12zm0 23.275h-41.718a6 6 0 0 0 0 12h41.718a6 6 0 1 0 0-12zM85.256 83.703c-25.711 0-46.629 20.917-46.629 46.629 0 25.712 20.918 46.631 46.629 46.631a6 6 0 0 0 0-12c-19.095 0-34.629-15.535-34.629-34.631 0-19.094 15.534-34.629 34.629-34.629s34.629 15.535 34.629 34.629v10.16a4.161 4.161 0 0 1-4.158 4.156 4.161 4.161 0 0 1-4.157-4.156v-10.16c0-14.51-11.804-26.314-26.313-26.314-14.51 0-26.314 11.805-26.314 26.314 0 14.511 11.805 26.316 26.314 26.316 6.688 0 12.798-2.512 17.444-6.638 2.942 4.015 7.678 6.638 13.026 6.638 8.91 0 16.158-7.247 16.158-16.156v-10.16c0-25.711-20.918-46.629-46.629-46.629zm0 60.945c-7.893 0-14.314-6.422-14.314-14.316 0-7.893 6.422-14.314 14.314-14.314 7.893 0 14.313 6.421 14.313 14.314 0 7.894-6.421 14.316-14.313 14.316z"/></symbol></svg>