<?xml version="1.0" encoding="utf-8"?><svg xmlns="http://www.w3.org/2000/svg" xmlns:xlink="http://www.w3.org/1999/xlink"><symbol viewBox="0 0 512 512" id="briefcase" xmlns="http://www.w3.org/2000/svg"><path d="M453.1 92.3h-98.8v-25c0-31.3-25-56.3-56.2-56.3h-86.3c-31.2 0-56.2 25-56.2 56.3v25H58.9c-27 0-47.9 21.9-47.9 48V453c0 26.1 21.8 48 47.9 48h393.2c26 0 47.9-21.9 48.9-48V140.3c0-27.1-21.8-48-47.9-48zm-277.7-25c0-19.8 16.6-36.5 36.4-36.5h86.3c19.8 0 36.4 16.7 36.4 36.5v25H175.4v-25zM480.2 453c0 14.6-12.5 27.1-27 27.1H58.9c-14.6 0-27-12.5-27-27.1V140.3c0-14.6 12.5-27.1 27-27.1h394.3c14.6 0 27 12.5 27 27.1V453z"/><path d="M313.7 312.3c-10.4-8.3-26-14.6-46.8-19.8h-1v-52.1c14.6 2.1 27 7.3 39.5 15.6l17.7-26.1c-17.7-12.5-37.5-19.8-57.2-20.9v-14.6h-17.7V208c-17.7 1-32.3 6.3-43.7 16.7-11.4 10.4-16.6 24-16.6 39.6 0 16.7 5.2 28.1 14.6 36.5 9.4 8.3 25 14.6 45.8 19.8v54.2c-16.6-2.1-32.3-10.4-47.9-24l-19.8 24c19.8 17.7 42.7 28.1 67.6 30.2v19.8h17.7V405c18.7-1 34.3-6.3 45.8-16.7s16.6-22.9 16.6-39.6c0-15.6-4.2-28.1-14.6-36.4zm-66.5-25c-10.4-3.1-16.6-7.3-20.8-10.4-3.1-3.1-5.2-8.3-5.2-14.6 0-6.3 2.1-11.5 7.3-15.6 5.2-4.2 11.4-6.3 18.7-7.3v47.9zm39.5 80.3c-5.2 4.2-12.5 7.3-21.8 8.3v-50c11.4 3.1 18.7 6.3 22.9 10.4 4.2 4.2 6.2 9.4 6.2 15.6 0 6.3-2.1 11.5-7.3 15.7z"/></symbol><symbol viewBox="0 0 512 512" id="graphic-design" xmlns="http://www.w3.org/2000/svg"><path d="M215.742 150.98c-22.453.868-43.222 10.477-58.472 27.047-23.356 25.38-24.028 52.164-24.622 75.797-.55 21.871-1.07 42.528-18.003 66.582l-22.18 31.512H131c3.04 0 6.016-.043 8.938-.121H412v-40H260.7c7.476-6.215 14.019-12.723 19.98-19.203 16.968-18.438 24.148-42.524 21.828-65.754l114.816-160.7c6.625-7.69 10.04-17.453 9.645-27.648-.41-10.687-4.961-20.574-12.813-27.836C406.31 3.391 396.11-.379 385.41.031c-10.578.406-20.37 4.871-27.617 12.574L222.336 151.008a82.435 82.435 0 0 0-6.594-.028zm35.504 114.532c-18.125 19.695-41.418 38.187-86.512 44.293 7.032-20.457 7.496-39 7.899-54.973.539-21.316.89-35.395 14.07-49.719 7.988-8.68 18.852-13.71 30.582-14.164 11.719-.449 22.93 3.719 31.55 11.742 17.884 16.649 18.966 44.829 2.411 62.82zM386.543 40.418l.258-.145-.672.723-101.34 141.84a83.881 83.881 0 0 0-8.7-9.422 84.57 84.57 0 0 0-11.155-8.746zM512 131.797v240c0 33.082-26.914 60-60 60H276v40h104v40H132v-40h104v-40H60c-33.086 0-60-26.918-60-60v-240c0-33.086 26.914-60 60-60h183.89l-39.148 40H60c-11.027 0-20 8.969-20 20v240c0 11.027 8.973 20 20 20h392c11.027 0 20-8.973 20-20v-240c0-11.031-8.973-20-20-20h-18.133L448.98 90.64a79.94 79.94 0 0 0 11.239-18.266C489.426 76.395 512 101.5 512 131.797zm0 0"/></symbol><symbol viewBox="0 0 512.005 512.005" id="landing" xmlns="http://www.w3.org/2000/svg"><path d="M162.677 199.606a8.514 8.514 0 0 0-7.031-4.633l-71.786-4.787c-3.72-.367-7.159 1.937-8.516 5.401L23.593 327.845a8.524 8.524 0 0 0 2.782 9.898 8.505 8.505 0 0 0 5.162 1.741c1.8 0 3.601-.563 5.12-1.706l42.954-32.211 25.01 5a8.529 8.529 0 0 0 9.642-5.324c13.431-35.181 29.6-67.895 48.039-97.222a8.534 8.534 0 0 0 .375-8.415zm-61.743 92.819l-21.724-4.343a8.595 8.595 0 0 0-6.792 1.544l-22.006 16.502 38.542-98.502 51.521 3.43c-14.847 25.13-28.107 52.417-39.541 81.369zm220.888 135.731l-4.787-71.795a8.545 8.545 0 0 0-4.642-7.04 8.512 8.512 0 0 0-8.413.375c-29.336 18.439-62.042 34.609-97.222 48.039a8.518 8.518 0 0 0-5.324 9.642l5 25.01-32.211 42.945a8.538 8.538 0 0 0 6.826 13.661 9.025 9.025 0 0 0 3.114-.572l132.258-51.751a8.533 8.533 0 0 0 5.401-8.514zM205.87 461.579l16.502-22.006a8.537 8.537 0 0 0 1.536-6.792l-4.343-21.716c28.96-11.434 56.239-24.694 81.368-39.541l3.439 51.512-98.502 38.543zm41.58-205.572h-57.494a8.546 8.546 0 0 0-7.458 4.386l-72.162 129.664a8.543 8.543 0 0 0 1.536 10.291 8.542 8.542 0 0 0 5.922 2.389 8.421 8.421 0 0 0 4.411-1.237l129.664-78.467a8.527 8.527 0 0 0 4.113-7.295V264.54c.001-4.71-3.822-8.533-8.532-8.533zm-8.532 54.926l-98.033 59.328 54.081-97.18v-.009h43.952v37.861z"/><path d="M511.574 8.224a8.544 8.544 0 0 0-7.799-7.799C500.942.203 219.95-19.414 98.324 299.149a8.525 8.525 0 0 0 1.937 9.079l40.573 40.573c1.903 1.903 4.565 2.773 7.236 2.415a8.567 8.567 0 0 0 6.272-4.335l40.65-73.808h43.927v37.962l-74.252 46.879a8.558 8.558 0 0 0-3.925 6.272 8.525 8.525 0 0 0 2.449 6.98l40.573 40.573a8.521 8.521 0 0 0 6.033 2.5 8.405 8.405 0 0 0 3.046-.563C531.421 292.041 511.813 11.049 511.574 8.224zm-44.763 151.389c-29.942 74.081-98.46 174.794-254.908 236.136l-29.097-29.097 69.201-43.688a8.553 8.553 0 0 0 3.976-7.219v-51.197a8.536 8.536 0 0 0-8.533-8.533h-57.511a8.54 8.54 0 0 0-7.475 4.42l-37.604 68.279-28.61-28.619C223.021 27.713 450.607 16.569 494.849 17.192c.316 19.899-1.51 76.778-28.038 142.421zM146.166 376.874a8.51 8.51 0 0 0-7.697-3.345 8.54 8.54 0 0 0-3.345-7.697c-12.867-9.727-29.472-12.961-45.573-8.883-17.091 4.343-31.068 15.999-38.338 31.998L.768 499.933a8.52 8.52 0 0 0 1.732 9.565 8.501 8.501 0 0 0 6.033 2.5 8.588 8.588 0 0 0 3.533-.768l110.986-50.454c15.99-7.261 27.646-21.238 31.989-38.329 4.087-16.084.853-32.697-8.875-45.573zm-7.662 41.375c-3.055 12.04-11.263 21.878-22.509 26.998l-90.277 41.034 41.034-90.285c5.111-11.246 14.958-19.455 26.998-22.509a38.611 38.611 0 0 1 9.488-1.195c5.316 0 10.512 1.135 15.248 3.345l-8.123 14.378a8.527 8.527 0 0 0 1.399 10.231 8.517 8.517 0 0 0 10.231 1.399l14.378-8.132c3.498 7.526 4.292 16.22 2.133 24.736z"/><path d="M511.574 8.233a8.545 8.545 0 0 0-7.799-7.799c-3.328-.265-82.427-6.255-175.451 36.597-2.534 1.16-4.335 3.498-4.83 6.246s.393 5.563 2.364 7.534l135.33 135.33a8.534 8.534 0 0 0 6.033 2.5c.503 0 1.007-.043 1.51-.128a8.54 8.54 0 0 0 6.246-4.83c42.86-93.024 36.87-172.131 36.597-175.45zm-47.118 157.028L346.738 47.543c68.1-28.747 127.735-30.727 148.12-30.385.341 20.402-1.579 79.85-30.402 148.103zm-87.615-30.103c-28.696-28.696-75.378-28.696-104.074 0s-28.696 75.378 0 104.074c14.344 14.352 33.193 21.52 52.033 21.52 18.849 0 37.689-7.176 52.041-21.52 28.696-28.696 28.696-75.379 0-104.074zm-12.065 92.008c-22.04 22.04-57.903 22.04-79.943 0s-22.04-57.903 0-79.943c11.016-11.016 25.496-16.528 39.968-16.528s28.952 5.512 39.976 16.528c22.039 22.04 22.039 57.903-.001 79.943z"/><path d="M341.763 204.162c-9.352 9.369-24.574 9.36-33.935 0-9.352-9.36-9.352-24.574 0-33.935 9.352-9.352 24.574-9.36 33.935 0 3.328 3.336 8.738 3.336 12.065 0a8.523 8.523 0 0 0 0-12.065c-15.999-16.007-42.058-16.007-58.065 0-16.008 16.007-16.008 42.058 0 58.065 8.004 8.004 18.525 12.006 29.037 12.006 10.521 0 21.033-4.002 29.028-12.006a8.523 8.523 0 0 0 0-12.065 8.523 8.523 0 0 0-12.065 0z"/></symbol><symbol viewBox="0 0 512 512" id="logo" xmlns="http://www.w3.org/2000/svg"><path d="M512 455.111C512 486.53 486.527 512 455.111 512H56.89C25.472 512 0 486.527 0 455.111V56.89C0 25.472 25.472 0 56.889 0H455.11C486.527 0 512 25.472 512 56.889V455.11z"/><path d="M194.944 351.588h44.544c56.888 0 82.887-41.885 82.887-94.805 0-56.448-26.439-97.452-87.296-97.452h-40.135v192.257zm-66.133-219.15c0-20.295 14.109-33.963 33.949-33.963h73.201c98.788 0 155.221 63.503 155.221 161.394 0 92.601-59.96 152.576-150.812 152.576h-76.729c-14.563 0-34.83-7.936-34.83-33.066V132.437z"/></symbol><symbol viewBox="0 -23 512 512" id="responsive" xmlns="http://www.w3.org/2000/svg"><path d="M452 118h-61V60c0-33.086-26.914-60-60-60H60C26.914 0 0 26.914 0 60v189.121c0 33.086 26.914 60 60 60h117v40h-66v40h146V406c0 33.086 26.914 60 60 60h135c33.086 0 60-26.914 60-60V178c0-33.086-26.914-60-60-60zM40 249.121V60c0-11.027 8.973-20 20-20h271c11.027 0 20 8.973 20 20v58h-34c-33.086 0-60 26.914-60 60v91.121H60c-11.027 0-20-8.973-20-20zm177 100v-40h40v40zM472 406c0 11.027-8.973 20-20 20H317c-11.027 0-20-8.973-20-20V178c0-11.027 8.973-20 20-20h135c11.027 0 20 8.973 20 20zm-67-197.879c0 11.047-8.953 20-20 20s-20-8.953-20-20 8.953-20 20-20 20 8.953 20 20zm0 0"/></symbol><symbol viewBox="0 0 512 512" id="shop" xmlns="http://www.w3.org/2000/svg"><path d="M488.468 448.903h-8.532V226.4C499.202 214.003 512 192.386 512 167.822a7.505 7.505 0 0 0-.988-3.721L451.499 59.953a23.587 23.587 0 0 0-20.432-11.857H80.933a23.585 23.585 0 0 0-20.432 11.857L.988 164.101A7.508 7.508 0 0 0 0 167.822c0 24.564 12.798 46.181 32.064 58.578v222.503h-8.532a7.5 7.5 0 0 0 0 15h464.936a7.5 7.5 0 0 0 0-15zM15.517 175.322h24.044a7.5 7.5 0 0 0 0-15H20.424l53.101-92.927a8.551 8.551 0 0 1 7.408-4.299h350.134a8.55 8.55 0 0 1 7.408 4.299l53.1 92.927h-19.141a7.5 7.5 0 0 0-7.5 7.5 7.5 7.5 0 0 0 7.5 7.5h24.048c-3.667 26.584-26.532 47.125-54.108 47.125-27.575 0-50.429-20.543-54.097-47.125h52.096a7.5 7.5 0 0 0 7.5-7.5 7.5 7.5 0 0 0-7.5-7.5H71.631a7.5 7.5 0 0 0 0 15h52.091c-3.668 26.582-26.523 47.125-54.097 47.125-27.576 0-50.441-20.541-54.108-47.125zm356.705 0c-3.668 26.582-26.523 47.125-54.097 47.125-27.575 0-50.429-20.543-54.097-47.125h108.194zm-124.25 0c-3.668 26.582-26.523 47.125-54.097 47.125s-50.429-20.543-54.097-47.125h108.194zm176.882 273.582h-81.193v-25.081h81.193v25.081zm0-40.081h-81.193V271.516h81.193v137.307zm40.082 40.081h-25.081V264.016a7.5 7.5 0 0 0-7.5-7.5h-96.193a7.5 7.5 0 0 0-7.5 7.5v184.887H47.064V233.674a69.289 69.289 0 0 0 22.561 3.773c27.095 0 50.624-15.556 62.125-38.207 11.501 22.65 35.03 38.207 62.125 38.207S244.499 221.891 256 199.24c11.501 22.65 35.03 38.207 62.125 38.207s50.624-15.556 62.125-38.207c11.501 22.65 35.03 38.207 62.125 38.207 7.896 0 15.48-1.34 22.561-3.772v215.229z"/><path d="M296.081 256.516H79.645a7.5 7.5 0 0 0-7.5 7.5v152.307a7.5 7.5 0 0 0 7.5 7.5h216.436a7.5 7.5 0 0 0 7.5-7.5V264.016c0-4.143-3.357-7.5-7.5-7.5zm-7.5 152.307H87.145V271.516h201.436v137.307z"/></symbol><symbol viewBox="0 0 546.773 546.773" id="social-facebook" xmlns="http://www.w3.org/2000/svg"><path d="M382.1 0h-56.953c-43.574 0-74.872 10.343-93.893 31.022-19.027 20.686-28.532 51.151-28.532 91.408v38.373c0 10.141-8.219 18.36-18.36 18.36H164.68c-10.141 0-18.36 8.219-18.36 18.36v57.503c0 10.141 8.219 18.36 18.36 18.36h19.682c10.141 0 18.36 8.219 18.36 18.36v236.666c0 10.141 8.219 18.36 18.36 18.36h76.414c10.141 0 18.36-8.22 18.36-18.36V291.747c0-10.142 8.22-18.36 18.36-18.36h38.592c10.142 0 19.224-8.176 20.289-18.256l6.095-57.712c1.065-10.085-6.291-18.256-16.433-18.256H334.21c-10.141 0-18.36-8.219-18.36-18.36v-28.752c0-7.075.331-12.552.997-16.426.661-3.868 2.154-7.681 4.48-11.445 2.319-3.757 6.083-6.358 11.279-7.797 5.195-1.438 12.111-2.16 20.734-2.16h28.752c10.141 0 18.359-8.219 18.359-18.36V18.36C400.459 8.219 392.24 0 382.1 0z"/></symbol><symbol viewBox="0 0 550.795 550.795" id="social-mail" xmlns="http://www.w3.org/2000/svg"><path d="M501.613 491.782c12.381 0 23.109-4.088 32.229-12.16L377.793 323.567a2878.213 2878.213 0 0 0-10.801 7.767c-11.678 8.604-21.156 15.318-28.434 20.129-7.277 4.822-16.959 9.737-29.045 14.755-12.094 5.024-23.361 7.528-33.813 7.528h-.612c-10.453 0-21.72-2.503-33.813-7.528-12.093-5.018-21.775-9.933-29.045-14.755-7.277-4.811-16.75-11.524-28.434-20.129a1351.934 1351.934 0 0 0-10.771-7.809L16.946 479.622c9.119 8.072 19.854 12.16 32.234 12.16h452.433zM31.047 225.299C19.37 217.514 9.015 208.598 0 198.555V435.98l137.541-137.541c-27.516-19.21-62.969-43.562-106.494-73.14zm489.012 0c-41.865 28.336-77.447 52.73-106.75 73.195l137.486 137.492V198.555c-8.815 9.841-19.059 18.751-30.736 26.744z"/><path d="M501.613 59.013H49.181c-15.784 0-27.919 5.33-36.42 15.979C4.253 85.646.006 98.97.006 114.949c0 12.907 5.636 26.892 16.903 41.959 11.267 15.061 23.256 26.891 35.961 35.496 6.965 4.921 27.969 19.523 63.012 43.801a20367.497 20367.497 0 0 1 49.505 34.395 8855.122 8855.122 0 0 1 31.022 21.701c.985.691 2.534 1.799 4.59 3.269 2.215 1.591 5.018 3.61 8.476 6.107 6.659 4.816 12.191 8.709 16.597 11.683 4.4 2.975 9.731 6.298 15.985 9.988 6.249 3.685 12.143 6.456 17.675 8.299 5.533 1.842 10.655 2.766 15.367 2.766h.612c4.711 0 9.834-.924 15.368-2.766 5.531-1.843 11.42-4.608 17.674-8.299 6.248-3.69 11.572-7.02 15.986-9.988 4.406-2.974 9.938-6.866 16.598-11.683 3.451-2.497 6.254-4.517 8.469-6.102a643.575 643.575 0 0 1 4.596-3.274c6.684-4.651 17.1-11.892 31.104-21.616 25.482-17.705 63.01-43.764 112.742-78.281 14.957-10.447 27.453-23.054 37.496-37.803 10.025-14.749 15.051-30.22 15.051-46.408 0-13.525-4.873-25.098-14.598-34.737-9.736-9.627-21.265-14.443-34.584-14.443z"/></symbol><symbol viewBox="0 0 536.9 536.9" id="social-skype" xmlns="http://www.w3.org/2000/svg"><path d="M514.533 268.444c0-33.317-6.469-65.185-19.4-95.595s-30.41-56.622-52.43-78.648c-22.021-22.026-48.238-39.499-78.648-52.43s-62.277-19.4-95.601-19.4c-17.014 0-34.492 1.873-52.43 5.6C191.782 9.335 164.518.009 134.23.009c-37.051 0-68.685 13.109-94.903 39.321C13.109 65.542 0 97.17 0 134.227c0 30.3 9.314 57.564 27.962 81.788-3.733 17.956-5.594 35.435-5.594 52.43 0 33.329 6.469 65.196 19.401 95.606 12.931 30.41 30.41 56.622 52.43 78.648 22.02 22.025 48.238 39.498 78.648 52.43 30.41 12.932 62.277 19.4 95.6 19.4 17.008 0 34.486-1.873 52.43-5.6 24.236 18.635 51.5 27.962 81.795 27.962 37.051 0 68.684-13.109 94.902-39.321 26.219-26.218 39.326-57.852 39.326-94.896 0-30.3-9.32-57.553-27.961-81.8 3.727-17.926 5.594-35.404 5.594-52.43zM398.484 372.79c-7.691 13.629-18.004 24.535-30.936 32.687-12.932 8.152-27.209 14.395-42.822 18.691-15.617 4.314-31.928 6.475-48.936 6.475-39.382 0-73.292-7.632-101.72-22.901-28.433-15.263-42.644-33.617-42.644-55.056 0-10.483 2.968-19.223 8.917-26.218 5.942-6.989 14.731-10.483 26.389-10.483 6.757 0 13.048 1.873 18.874 5.6 5.82 3.728 11.188 8.207 16.078 13.452a287.527 287.527 0 0 0 15.906 15.729c5.71 5.244 13.28 9.736 22.724 13.464 9.437 3.727 20.098 5.587 31.983 5.587 15.141 0 27.381-2.962 36.701-8.904 9.314-5.955 13.984-13.464 13.984-22.559 0-9.314-3.732-16.304-11.188-20.973-5.129-3.25-18.176-7.442-39.148-12.577l-51.035-12.589c-13.984-3.249-25.986-7.044-36.004-11.358-10.024-4.303-19.345-9.951-27.962-16.946-8.623-6.989-15.147-15.784-19.572-26.396-4.431-10.594-6.64-23.005-6.64-37.234 0-17.001 3.898-31.977 11.708-44.908 7.803-12.932 18.176-23.079 31.108-30.41 12.932-7.344 26.854-12.822 41.769-16.438 14.908-3.604 30.288-5.41 46.139-5.41 22.369 0 43.574 2.674 63.617 8.029 20.037 5.367 36.586 13.231 49.633 23.593 13.049 10.379 19.572 21.971 19.572 34.792 0 10.484-3.322 19.456-9.963 26.91s-15.441 11.181-26.391 11.181c-6.059 0-11.652-1.395-16.773-4.192-5.129-2.797-9.787-6.169-13.984-10.147a268.388 268.388 0 0 0-13.281-11.702c-4.664-3.849-10.955-7.167-18.873-9.969-7.926-2.797-16.898-4.192-26.917-4.192-33.556 0-50.331 8.984-50.331 26.91 0 3.972.875 7.466 2.62 10.483 1.75 3.048 3.672 5.49 5.765 7.344 2.099 1.873 5.594 3.727 10.483 5.587 4.896 1.873 8.966 3.225 12.234 4.027 3.262.82 8.391 2.032 15.379 3.672l36.352 8.384c11.414 2.564 21.611 5.245 30.588 8.042 8.967 2.797 18.582 6.757 28.838 11.879 10.252 5.135 18.758 10.839 25.521 17.136 6.756 6.279 12.404 14.266 16.951 23.936 4.547 9.682 6.818 20.343 6.818 31.989.006 17.036-3.843 32.354-11.531 45.983z"/></symbol><symbol viewBox="0 0 532.337 532.337" id="social-vk" xmlns="http://www.w3.org/2000/svg"><path d="M471.998 241.286c7.57-9.786 13.58-17.638 18.018-23.562 31.965-42.498 45.82-69.646 41.574-81.482l-1.666-2.772c-1.107-1.665-3.977-3.194-8.592-4.578-4.621-1.383-10.533-1.604-17.736-.691l-79.822.563a22.728 22.728 0 0 0-5.545.128c-1.848.281-3.047.563-3.605.832-.557.282-1.016.508-1.383.692l-1.107.832c-.924.551-1.939 1.524-3.047 2.914-1.109 1.389-2.039 2.999-2.773 4.853-8.684 22.356-18.568 43.146-29.656 62.363-6.838 11.457-13.123 21.396-18.844 29.792-5.729 8.415-10.533 14.603-14.414 18.568-3.879 3.972-7.393 7.166-10.531 9.56-3.146 2.411-5.545 3.421-7.203 3.054a138.055 138.055 0 0 1-4.713-1.114c-2.588-1.658-4.67-3.917-6.236-6.787-1.572-2.857-2.631-6.463-3.189-10.808-.551-4.339-.881-8.084-.967-11.23-.098-3.139-.049-7.57.141-13.305.184-5.729.275-9.602.275-11.64 0-7.014.141-14.639.418-22.864.275-8.219.508-14.737.691-19.542.184-4.798.275-9.884.275-15.245 0-5.349-.324-9.56-.975-12.613a44.18 44.18 0 0 0-2.906-8.868c-1.297-2.858-3.189-5.08-5.686-6.646-2.496-1.573-5.588-2.815-9.283-3.746-9.799-2.222-22.271-3.409-37.418-3.604-34.37-.355-56.451 1.86-66.243 6.658-3.88 2.038-7.393 4.804-10.532 8.317-3.329 4.07-3.788 6.291-1.383 6.646 11.089 1.665 18.936 5.643 23.556 11.922l1.665 3.323c1.291 2.411 2.583 6.659 3.88 12.754 1.292 6.096 2.124 12.84 2.497 20.233.924 13.488.924 25.031 0 34.646-.924 9.614-1.799 17.093-2.631 22.442-.833 5.361-2.081 9.7-3.74 13.023-1.665 3.335-2.772 5.367-3.329 6.107-.557.734-1.016 1.199-1.383 1.384a20.804 20.804 0 0 1-7.484 1.383c-2.589 0-5.729-1.298-9.425-3.887-3.697-2.576-7.534-6.138-11.5-10.667-3.978-4.522-8.452-10.856-13.446-18.99-4.988-8.121-10.166-17.736-15.521-28.819l-4.431-8.042c-2.772-5.165-6.561-12.699-11.365-22.583s-9.058-19.443-12.748-28.69c-1.481-3.874-3.697-6.83-6.652-8.868l-1.383-.832c-.924-.735-2.405-1.524-4.437-2.351a29.865 29.865 0 0 0-6.377-1.805l-75.943.551c-7.76 0-13.023 1.763-15.795 5.275l-1.108 1.659c-.56.93-.835 2.411-.835 4.437 0 2.038.557 4.529 1.665 7.479 11.089 26.059 23.146 51.188 36.169 75.386 13.03 24.211 24.346 43.709 33.954 58.489 9.608 14.792 19.4 28.733 29.382 41.854 9.982 13.121 16.585 21.523 19.816 25.214 3.231 3.703 5.771 6.476 7.62 8.317l6.928 6.658c4.431 4.432 10.949 9.743 19.542 15.937 8.592 6.193 18.103 12.289 28.55 18.287 10.435 6.01 22.589 10.899 36.444 14.694 13.856 3.794 27.344 5.317 40.465 4.571h31.874c6.469-.551 11.363-2.576 14.688-6.096l1.107-1.383c.734-1.102 1.432-2.815 2.08-5.123.643-2.307.975-4.853.975-7.619-.191-7.943.416-15.116 1.799-21.481 1.383-6.377 2.955-11.175 4.713-14.418 1.756-3.226 3.738-5.955 5.959-8.177 2.217-2.222 3.783-3.55 4.713-4.015.924-.453 1.666-.777 2.217-.973 4.43-1.476 9.65-.043 15.66 4.296 6.004 4.352 11.641 9.7 16.91 16.077 5.262 6.377 11.59 13.531 18.984 21.481 7.387 7.943 13.855 13.855 19.4 17.735l5.545 3.336c3.695 2.209 8.494 4.241 14.412 6.096 5.912 1.842 11.09 2.307 15.52 1.383l70.955-1.114c7.02 0 12.473-1.15 16.354-3.464 3.879-2.295 6.188-4.853 6.928-7.619.734-2.772.783-5.899.141-9.419-.648-3.507-1.297-5.955-1.939-7.338-.648-1.383-1.25-2.546-1.807-3.464-9.24-16.628-26.885-37.051-52.938-61.255l-.557-.551-.275-.281-.275-.27h-.278c-11.83-11.273-19.309-18.85-22.449-22.736-5.727-7.38-7.025-14.865-3.879-22.441 2.203-5.745 10.514-17.85 24.926-36.333z"/></symbol><symbol viewBox="0 0 512 512" id="social-whatsapp" xmlns="http://www.w3.org/2000/svg"><path d="M256.064 0h-.128C114.784 0 0 114.816 0 256c0 56 18.048 107.904 48.736 150.048l-31.904 95.104 98.4-31.456C155.712 496.512 204 512 256.064 512 397.216 512 512 397.152 512 256S397.216 0 256.064 0zm148.96 361.504c-6.176 17.44-30.688 31.904-50.24 36.128-13.376 2.848-30.848 5.12-89.664-19.264-75.232-31.168-123.68-107.616-127.456-112.576-3.616-4.96-30.4-40.48-30.4-77.216s18.656-54.624 26.176-62.304c6.176-6.304 16.384-9.184 26.176-9.184 3.168 0 6.016.16 8.576.288 7.52.32 11.296.768 16.256 12.64 6.176 14.88 21.216 51.616 23.008 55.392 1.824 3.776 3.648 8.896 1.088 13.856-2.4 5.12-4.512 7.392-8.288 11.744-3.776 4.352-7.36 7.68-11.136 12.352-3.456 4.064-7.36 8.416-3.008 15.936 4.352 7.36 19.392 31.904 41.536 51.616 28.576 25.44 51.744 33.568 60.032 37.024 6.176 2.56 13.536 1.952 18.048-2.848 5.728-6.176 12.8-16.416 20-26.496 5.12-7.232 11.584-8.128 18.368-5.568 6.912 2.4 43.488 20.48 51.008 24.224 7.52 3.776 12.48 5.568 14.304 8.736 1.792 3.168 1.792 18.048-4.384 35.52z"/></symbol><symbol viewBox="0 0 512 512" id="support" xmlns="http://www.w3.org/2000/svg"><path d="M368.678 285.929c10.482-39.696-.724-82.421-30.219-111.917-32.689-32.69-81.639-42.912-124.697-26.041l-28.459 11.151 60.396 60.397c7.219 7.218 7.219 18.962 0 26.18-3.496 3.497-8.146 5.423-13.09 5.423s-9.594-1.926-13.09-5.423l-60.397-60.396-11.15 28.458c-16.873 43.059-6.651 92.006 26.041 124.699 29.496 29.494 72.217 40.698 111.916 30.218l126.184 126.185C423.164 505.913 437.858 512 453.487 512c15.631 0 30.324-6.087 41.375-17.138 22.813-22.814 22.813-59.936 0-82.75L368.678 285.929zm97.899 180.649a18.392 18.392 0 0 1-13.09 5.422 18.39 18.39 0 0 1-13.09-5.423L296.303 322.482l-12.186 4.775c-28.256 11.072-60.372 4.364-81.82-17.082a76.274 76.274 0 0 1-22.047-47.177l10.984 10.985c11.052 11.051 25.746 17.138 41.375 17.138s30.323-6.087 41.375-17.138c22.813-22.814 22.813-59.936 0-82.75L263 180.251a76.283 76.283 0 0 1 47.175 22.045c21.449 21.45 28.154 53.566 17.083 81.821l-4.775 12.186 144.095 144.095c7.218 7.217 7.218 18.961-.001 26.18zM512 222.26v67.48l-65.516 17.426-32.694-32.694L472 258.988v-5.977l-61.915-16.469-2.504-12.099c-3.913-18.905-11.361-36.815-22.14-53.231l-6.755-10.289 31.644-54.961-4.293-4.294-54.962 31.646-10.29-6.756c-16.413-10.777-34.322-18.226-53.229-22.14l-12.099-2.505L258.988 40h-5.977l-16.469 61.914-12.099 2.505c-18.907 3.914-36.816 11.362-53.229 22.14l-10.29 6.756-54.962-31.646-4.293 4.294 31.644 54.961-6.755 10.289c-10.778 16.416-18.227 34.326-22.14 53.231l-2.504 12.099L40 253.012v5.977l61.914 16.469 2.505 12.099c3.914 18.907 11.362 36.817 22.14 53.231l6.755 10.289-31.644 54.96 4.293 4.294 54.961-31.644 10.289 6.755c16.415 10.777 34.324 18.226 53.231 22.14l12.099 2.504L253.012 472h5.977l15.483-58.21 32.694 32.694L289.74 512h-67.48l-18.139-68.196c-15.398-4.252-30.188-10.406-44.191-18.389l-60.574 34.876-47.646-47.647 34.876-60.573c-7.982-14.003-14.137-28.793-18.389-44.191L0 289.74v-67.48l68.196-18.139c4.251-15.397 10.405-30.188 18.389-44.191L51.709 99.355l47.646-47.647 60.574 34.877c14.002-7.981 28.794-14.137 44.191-18.389L222.26 0h67.48l18.139 68.196c15.397 4.252 30.189 10.407 44.191 18.389l60.574-34.877 47.646 47.647-34.876 60.574c7.983 14.004 14.138 28.794 18.389 44.191L512 222.26z"/></symbol><symbol viewBox="0 0 512 512" id="television" xmlns="http://www.w3.org/2000/svg"><path d="M512 421V31H0v390h181v30H91v30h330v-30h-90v-30h181zm-211 30h-90v-30h90v30zM30 391V61h452v330H30z"/><path d="M406.047 192.233l-103.67-15.056L256 83.211l-46.377 93.965-103.67 15.055 75.015 73.149-17.705 103.28L256 319.896l92.737 48.766-17.705-103.28 75.015-73.149zM256 286.001l-52.897 27.816L213.2 254.91l-42.788-41.724 59.133-8.587L256 150.996l26.455 53.603 59.133 8.587L298.8 254.91l10.097 58.907L256 286.001z"/></symbol><symbol viewBox="0 0 260.666 260.666" id="visit-card" xmlns="http://www.w3.org/2000/svg"><path d="M236.666 40.882H24c-13.233 0-24 10.767-24 24v130.902c0 13.233 10.767 24 24 24h212.666c13.233 0 24-10.767 24-24V64.882c0-13.234-10.767-24-24-24zm9 154.902c0 4.962-4.037 9-9 9H24c-4.963 0-9-4.038-9-9V64.882c0-4.962 4.037-9 9-9h212.666c4.963 0 9 4.038 9 9v130.902z"/><path d="M216.04 83.703h-68.933a6 6 0 0 0 0 12h68.933a6 6 0 0 0 0-12zm0 81.26h-68.933a6 6 0 1 0 0 12h68.933a6 6 0 0 0 0-12zm0-46.552h-41.718a6 6 0 0 0 0 12h41.718a6 6 0 0 0 0-12zm0 23.275h-41.718a6 6 0 0 0 0 12h41.718a6 6 0 1 0 0-12zM85.256 83.703c-25.711 0-46.629 20.917-46.629 46.629 0 25.712 20.918 46.631 46.629 46.631a6 6 0 0 0 0-12c-19.095 0-34.629-15.535-34.629-34.631 0-19.094 15.534-34.629 34.629-34.629s34.629 15.535 34.629 34.629v10.16a4.161 4.161 0 0 1-4.158 4.156 4.161 4.161 0 0 1-4.157-4.156v-10.16c0-14.51-11.804-26.314-26.313-26.314-14.51 0-26.314 11.805-26.314 26.314 0 14.511 11.805 26.316 26.314 26.316 6.688 0 12.798-2.512 17.444-6.638 2.942 4.015 7.678 6.638 13.026 6.638 8.91 0 16.158-7.247 16.158-16.156v-10.16c0-25.711-20.918-46.629-46.629-46.629zm0 60.945c-7.893 0-14.314-6.422-14.314-14.316 0-7.893 6.422-14.314 14.314-14.314 7.893 0 14.313 6.421 14.313 14.314 0 7.894-6.421 14.316-14.313 14.316z"/></symbol><symbol viewBox="0 -10 512 512" id="web-design" xmlns="http://www.w3.org/2000/svg"><path d="M69.938 79.926c0-11.035 8.945-19.98 19.98-19.98s19.98 8.945 19.98 19.98c0 11.039-8.945 19.984-19.98 19.984s-19.98-8.945-19.98-19.984zm89.917 19.984c11.036 0 19.98-8.945 19.98-19.984 0-11.035-8.944-19.98-19.98-19.98-11.035 0-19.984 8.945-19.984 19.98 0 11.039 8.95 19.984 19.984 19.984zM512 406.984l-84.91 85.102-138.031-134.242a70.722 70.722 0 0 1-17.047-27.664l-.313-.942-21.36-95.402 95.15 21.637.913.304a70.702 70.702 0 0 1 27.543 16.953zm-56.879.43L345.79 301.09a29.3 29.3 0 0 0-2.406-2.16l-28.242 28.222c.66.82 1.359 1.614 2.101 2.36L426.668 435.93zM307.59 431.605l41.09 39.965H59.945C26.891 471.57 0 444.68 0 411.625V59.945C0 26.891 26.89 0 59.945 0H451.59c33.055 0 59.945 26.89 59.945 59.945v290.84l-39.965-38.863V159.855H39.965v251.77c0 11.02 8.96 19.98 19.98 19.98zM39.965 59.945v59.946H471.57V59.945c0-11.02-8.965-19.98-19.98-19.98H59.945c-11.02 0-19.98 8.965-19.98 19.98zm0 0"/></symbol><symbol viewBox="0 -20 512 512" id="website" xmlns="http://www.w3.org/2000/svg"><path d="M452 0H60C26.914 0 0 26.914 0 60v352c0 33.086 26.914 60 60 60h392c33.086 0 60-26.914 60-60V60c0-33.086-26.914-60-60-60zM60 40h392c11.027 0 20 8.973 20 20v60H40V60c0-11.027 8.973-20 20-20zm392 392H60c-11.027 0-20-8.973-20-20V160h432v252c0 11.027-8.973 20-20 20zM70 80c0-11.047 8.953-20 20-20s20 8.953 20 20-8.953 20-20 20-20-8.953-20-20zm70 0c0-11.047 8.953-20 20-20s20 8.953 20 20-8.953 20-20 20-20-8.953-20-20zM80 392h156V200H80zm40-152h76v112h-76zm156 36h156v40H276zm0 76h156v40H276zm0-152h156v40H276zm0 0"/></symbol></svg>