<svg xmlns="http://www.w3.org/2000/svg" viewBox="0 0 600 300"><defs><style>.cls-2{fill:#f3f1f0}.cls-5{fill:#f90}.cls-6{fill:none;stroke:#f3f1f0;stroke-miterlimit:10;stroke-width:2px}</style></defs><g id="browser"><rect x="27.61" y="18.61" width="539.9" height="260.05" rx="10" ry="10" fill="#666059"/><path class="cls-2" d="M36 53.85h522V258a12 12 0 0 1-12 12H48a12 12 0 0 1-12-12V53.85z"/><rect class="cls-2" x="49.8" y="27.42" width="362.3" height="15.15" rx="6" ry="6"/><circle class="cls-2" cx="547.68" cy="34.89" r="7.68"/><circle class="cls-2" cx="524.06" cy="35.1" r="7.68"/><circle class="cls-2" cx="499.73" cy="35.1" r="7.68"/><text transform="translate(237.95 145.97)" font-size="51" fill="#736357" font-family="CourierNewPS-BoldMT,Courier New" font-weight="700">In the <tspan x="0" y="61.2" letter-spacing=".11em"> </tspan><tspan x="36" y="61.2">making...</tspan></text></g><g id="gears"><path class="cls-5" d="M152.21 191.71l-12.5-6.94c.1-1.15.17-2.32.17-3.49s-.06-2.34-.17-3.49l12.5-6.94a1.87 1.87 0 0 0 .87-2.22l-2.42-7.46a1.87 1.87 0 0 0-2-1.28l-14.18 1.73a38.53 38.53 0 0 0-4.12-5.65l6-13a1.87 1.87 0 0 0-.6-2.31l-6.35-4.61a1.87 1.87 0 0 0-2.38.14L116.6 146a38.14 38.14 0 0 0-6.66-2.15l-2.74-14a1.87 1.87 0 0 0-1.84-1.52h-7.83a1.87 1.87 0 0 0-1.84 1.52L93 143.8a38.14 38.14 0 0 0-6.71 2.2l-10.45-9.73a1.87 1.87 0 0 0-2.38-.14l-6.35 4.61a1.87 1.87 0 0 0-.6 2.31l6 13a38.53 38.53 0 0 0-4.12 5.65l-14.18-1.73a1.87 1.87 0 0 0-2 1.28l-2.42 7.46a1.87 1.87 0 0 0 .87 2.22l12.5 6.94c-.1 1.15-.17 2.32-.17 3.49s.06 2.34.17 3.49l-12.5 6.94a1.87 1.87 0 0 0-.87 2.22l2.42 7.46a1.87 1.87 0 0 0 2 1.28l14.18-1.73a38.53 38.53 0 0 0 4.12 5.65l-6 13a1.87 1.87 0 0 0 .6 2.31l6.35 4.61a1.87 1.87 0 0 0 2.38-.14l10.45-9.73a38.14 38.14 0 0 0 6.71 2.02l2.74 14a1.87 1.87 0 0 0 1.84 1.52h7.85a1.87 1.87 0 0 0 1.84-1.52l2.74-14a38.14 38.14 0 0 0 6.66-2.15l10.45 9.73a1.87 1.87 0 0 0 2.38.14l6.35-4.61a1.87 1.87 0 0 0 .6-2.31l-6-13a38.53 38.53 0 0 0 4.12-5.65l14.18 1.73a1.87 1.87 0 0 0 2-1.28l2.42-7.46a1.87 1.87 0 0 0-.96-2.17zM101.45 202a20.75 20.75 0 1 1 20.75-20.75A20.75 20.75 0 0 1 101.45 202z"/><path class="cls-5" d="M208.68 151.61L201 143.2c.37-.85.71-1.71 1-2.61s.54-1.79.75-2.69l11.22-2.11a1.5 1.5 0 0 0 1.22-1.46v-6.27a1.5 1.5 0 0 0-1.2-1.48l-11.18-2.26a30.77 30.77 0 0 0-1.7-5.32l7.83-8.31a1.5 1.5 0 0 0 .13-1.9l-3.65-5.09a1.5 1.5 0 0 0-1.84-.49L193.21 108a30.45 30.45 0 0 0-4.5-3.31l1.46-11.32a1.5 1.5 0 0 0-1-1.61l-5.95-2a1.5 1.5 0 0 0-1.78.69l-5.6 9.94a30.45 30.45 0 0 0-5.59 0l-5.47-10a1.5 1.5 0 0 0-1.77-.71l-6 1.9a1.5 1.5 0 0 0-1 1.6l1.31 11.34a30.77 30.77 0 0 0-4.54 3.25l-10.31-4.88a1.5 1.5 0 0 0-1.85.47l-3.72 5a1.5 1.5 0 0 0 .1 1.9l7.73 8.4c-.37.85-.71 1.71-1 2.61s-.54 1.79-.75 2.69l-11.22 2.11a1.5 1.5 0 0 0-1.22 1.46v6.27a1.5 1.5 0 0 0 1.2 1.48l11.18 2.26a30.77 30.77 0 0 0 1.7 5.32l-7.83 8.31a1.5 1.5 0 0 0-.13 1.9l3.65 5.09a1.5 1.5 0 0 0 1.84.49l10.37-4.75a30.45 30.45 0 0 0 4.5 3.31l-1.46 11.32a1.5 1.5 0 0 0 1 1.61l5.95 2a1.5 1.5 0 0 0 1.78-.69l5.6-9.94a30.45 30.45 0 0 0 5.59 0l5.47 10a1.5 1.5 0 0 0 1.77.71l6-1.9a1.5 1.5 0 0 0 1-1.6l-1.31-11.34a30.77 30.77 0 0 0 4.54-3.25l10.27 4.87a1.5 1.5 0 0 0 1.85-.47l3.72-5a1.5 1.5 0 0 0-.11-1.92zm-41.06-5a16.57 16.57 0 1 1 20.95-10.5 16.57 16.57 0 0 1-20.96 10.54z"/><path class="cls-5" d="M198.72 197.38l-5.6-2.49c0-.5 0-1-.06-1.5s-.12-1-.2-1.49l5.07-3.44a.8.8 0 0 0 .29-1l-1.32-3.09a.8.8 0 0 0-.91-.47l-6 1.28a16.52 16.52 0 0 0-2-2.26l2.08-5.77a.8.8 0 0 0-.34-1l-2.89-1.73a.8.8 0 0 0-1 .15l-4.09 4.55a16.35 16.35 0 0 0-2.92-.67l-1.7-5.89a.8.8 0 0 0-.84-.58l-3.35.3a.8.8 0 0 0-.73.72l-.64 6.09a16.35 16.35 0 0 0-2.76 1.17l-4.81-3.67a.8.8 0 0 0-1 0l-2.54 2.21a.8.8 0 0 0-.17 1l3.07 5.31a16.52 16.52 0 0 0-1.54 2.57l-6.12-.2a.8.8 0 0 0-.81.62l-.75 3.28a.8.8 0 0 0 .46.91l5.6 2.49c0 .5 0 1 .06 1.5s.12 1 .2 1.49l-5.07 3.44a.8.8 0 0 0-.29 1l1.32 3.09a.8.8 0 0 0 .91.47l6-1.28a16.52 16.52 0 0 0 2 2.26l-2.08 5.77a.8.8 0 0 0 .34 1l2.89 1.73a.8.8 0 0 0 1-.15l4.09-4.55a16.35 16.35 0 0 0 2.92.67l1.7 5.89a.8.8 0 0 0 .84.58l3.35-.3a.8.8 0 0 0 .73-.72l.64-6.09a16.35 16.35 0 0 0 2.76-1.17l4.83 3.76a.8.8 0 0 0 1 0l2.54-2.21a.8.8 0 0 0 .17-1l-3.05-5.4a16.52 16.52 0 0 0 1.5-2.56l6.12.2a.8.8 0 0 0 .81-.62l.75-3.28a.8.8 0 0 0-.46-.92zm-21.28 6.34a8.9 8.9 0 1 1 8.07-9.65 8.9 8.9 0 0 1-8.07 9.64z"/><circle class="cls-6" cx="101.45" cy="181.27" r="26.06"/><circle class="cls-6" cx="172.83" cy="130.93" r="21.11"/><circle cx="176.83" cy="194.67" r="11.83" fill="none" stroke="#f3f1f0" stroke-miterlimit="10"/></g></svg>