<svg xmlns="http://www.w3.org/2000/svg" xmlns:xlink="http://www.w3.org/1999/xlink" width="39" height="39"><defs><path id="a" d="M670 2586.781c0 .674-.545 1.219-1.219 1.219h-29.25a1.218 1.218 0 1 1 0-2.437h29.25c.674 0 1.219.545 1.219 1.218zm0-24.375v4.875c0 8.75-7.094 15.844-15.844 15.844-5.653 0-10.602-2.97-13.406-7.427v.115h-2.438A7.313 7.313 0 0 1 631 2568.5v-4.875a2.436 2.436 0 0 1 2.438-2.438h35.343c.674 0 1.219.546 1.219 1.22zm-30.469 10.969a15.776 15.776 0 0 1-1.219-6.094v-3.656h-3.656c-.673 0-1.218.545-1.218 1.219v3.656a4.875 4.875 0 0 0 4.874 4.875zm28.032-9.75H640.75v3.656c0 7.405 6.002 13.407 13.406 13.407 7.404 0 13.407-6.002 13.407-13.407zm-14.625-6.094v-7.312a1.218 1.218 0 1 1 2.437 0v7.312a1.218 1.218 0 1 1-2.438 0zm-7.313 0v-4.875a1.218 1.218 0 1 1 2.437 0v4.875a1.218 1.218 0 1 1-2.437 0zm14.625 0v-2.437a1.218 1.218 0 1 1 2.437 0v2.437a1.218 1.218 0 1 1-2.437 0z"/></defs><g transform="translate(-631 -2549)" fill="#ececec"><use xlink:href="#a"/><use xlink:href="#a"/></g></svg>