<svg height="512pt" viewBox="0 0 512 512" width="512pt" xmlns="http://www.w3.org/2000/svg"><path d="M215.742 150.98c-22.453.868-43.222 10.477-58.472 27.047-23.356 25.38-24.028 52.164-24.622 75.797-.55 21.871-1.07 42.528-18.003 66.582l-22.18 31.512H131c3.04 0 6.016-.043 8.938-.121H412v-40H260.7c7.476-6.215 14.019-12.723 19.98-19.203 16.968-18.438 24.148-42.524 21.828-65.754l114.816-160.7c6.625-7.69 10.04-17.453 9.645-27.648-.41-10.687-4.961-20.574-12.813-27.836C406.31 3.391 396.11-.379 385.41.031c-10.578.406-20.37 4.871-27.617 12.574L222.336 151.008a82.435 82.435 0 0 0-6.594-.028zm35.504 114.532c-18.125 19.695-41.418 38.187-86.512 44.293 7.032-20.457 7.496-39 7.899-54.973.539-21.316.89-35.395 14.07-49.719 7.988-8.68 18.852-13.71 30.582-14.164 11.719-.449 22.93 3.719 31.55 11.742 17.884 16.649 18.966 44.829 2.411 62.82zM386.543 40.418l.258-.145-.672.723-101.34 141.84a83.881 83.881 0 0 0-8.7-9.422 84.57 84.57 0 0 0-11.155-8.746zM512 131.797v240c0 33.082-26.914 60-60 60H276v40h104v40H132v-40h104v-40H60c-33.086 0-60-26.918-60-60v-240c0-33.086 26.914-60 60-60h183.89l-39.148 40H60c-11.027 0-20 8.969-20 20v240c0 11.027 8.973 20 20 20h392c11.027 0 20-8.973 20-20v-240c0-11.031-8.973-20-20-20h-18.133L448.98 90.64a79.94 79.94 0 0 0 11.239-18.266C489.426 76.395 512 101.5 512 131.797zm0 0"/></svg>