<svg xmlns="http://www.w3.org/2000/svg" viewBox="0 0 512 512"><path d="M512 455.111C512 486.53 486.527 512 455.111 512H56.89C25.472 512 0 486.527 0 455.111V56.89C0 25.472 25.472 0 56.889 0H455.11C486.527 0 512 25.472 512 56.889V455.11z" fill="#f90"/><path d="M194.944 351.588h44.544c56.888 0 82.887-41.885 82.887-94.805 0-56.448-26.439-97.452-87.296-97.452h-40.135v192.257zm-66.133-219.15c0-20.295 14.109-33.963 33.949-33.963h73.201c98.788 0 155.221 63.503 155.221 161.394 0 92.601-59.96 152.576-150.812 152.576h-76.729c-14.563 0-34.83-7.936-34.83-33.066V132.437z" fill="#39404b"/></svg>