<svg height="512pt" viewBox="0 -23 512 512" width="512pt" xmlns="http://www.w3.org/2000/svg"><path d="M452 118h-61V60c0-33.086-26.914-60-60-60H60C26.914 0 0 26.914 0 60v189.121c0 33.086 26.914 60 60 60h117v40h-66v40h146V406c0 33.086 26.914 60 60 60h135c33.086 0 60-26.914 60-60V178c0-33.086-26.914-60-60-60zM40 249.121V60c0-11.027 8.973-20 20-20h271c11.027 0 20 8.973 20 20v58h-34c-33.086 0-60 26.914-60 60v91.121H60c-11.027 0-20-8.973-20-20zm177 100v-40h40v40zM472 406c0 11.027-8.973 20-20 20H317c-11.027 0-20-8.973-20-20V178c0-11.027 8.973-20 20-20h135c11.027 0 20 8.973 20 20zm-67-197.879c0 11.047-8.953 20-20 20s-20-8.953-20-20 8.953-20 20-20 20 8.953 20 20zm0 0"/></svg>