<svg xmlns="http://www.w3.org/2000/svg" width="536.9" height="536.9"><path d="M514.533 268.444c0-33.317-6.469-65.185-19.4-95.595s-30.41-56.622-52.43-78.648c-22.021-22.026-48.238-39.499-78.648-52.43s-62.277-19.4-95.601-19.4c-17.014 0-34.492 1.873-52.43 5.6C191.782 9.335 164.518.009 134.23.009c-37.051 0-68.685 13.109-94.903 39.321C13.109 65.542 0 97.17 0 134.227c0 30.3 9.314 57.564 27.962 81.788-3.733 17.956-5.594 35.435-5.594 52.43 0 33.329 6.469 65.196 19.401 95.606 12.931 30.41 30.41 56.622 52.43 78.648 22.02 22.025 48.238 39.498 78.648 52.43 30.41 12.932 62.277 19.4 95.6 19.4 17.008 0 34.486-1.873 52.43-5.6 24.236 18.635 51.5 27.962 81.795 27.962 37.051 0 68.684-13.109 94.902-39.321 26.219-26.218 39.326-57.852 39.326-94.896 0-30.3-9.32-57.553-27.961-81.8 3.727-17.926 5.594-35.404 5.594-52.43zM398.484 372.79c-7.691 13.629-18.004 24.535-30.936 32.687-12.932 8.152-27.209 14.395-42.822 18.691-15.617 4.314-31.928 6.475-48.936 6.475-39.382 0-73.292-7.632-101.72-22.901-28.433-15.263-42.644-33.617-42.644-55.056 0-10.483 2.968-19.223 8.917-26.218 5.942-6.989 14.731-10.483 26.389-10.483 6.757 0 13.048 1.873 18.874 5.6 5.82 3.728 11.188 8.207 16.078 13.452a287.527 287.527 0 0 0 15.906 15.729c5.71 5.244 13.28 9.736 22.724 13.464 9.437 3.727 20.098 5.587 31.983 5.587 15.141 0 27.381-2.962 36.701-8.904 9.314-5.955 13.984-13.464 13.984-22.559 0-9.314-3.732-16.304-11.188-20.973-5.129-3.25-18.176-7.442-39.148-12.577l-51.035-12.589c-13.984-3.249-25.986-7.044-36.004-11.358-10.024-4.303-19.345-9.951-27.962-16.946-8.623-6.989-15.147-15.784-19.572-26.396-4.431-10.594-6.64-23.005-6.64-37.234 0-17.001 3.898-31.977 11.708-44.908 7.803-12.932 18.176-23.079 31.108-30.41 12.932-7.344 26.854-12.822 41.769-16.438 14.908-3.604 30.288-5.41 46.139-5.41 22.369 0 43.574 2.674 63.617 8.029 20.037 5.367 36.586 13.231 49.633 23.593 13.049 10.379 19.572 21.971 19.572 34.792 0 10.484-3.322 19.456-9.963 26.91s-15.441 11.181-26.391 11.181c-6.059 0-11.652-1.395-16.773-4.192-5.129-2.797-9.787-6.169-13.984-10.147a268.388 268.388 0 0 0-13.281-11.702c-4.664-3.849-10.955-7.167-18.873-9.969-7.926-2.797-16.898-4.192-26.917-4.192-33.556 0-50.331 8.984-50.331 26.91 0 3.972.875 7.466 2.62 10.483 1.75 3.048 3.672 5.49 5.765 7.344 2.099 1.873 5.594 3.727 10.483 5.587 4.896 1.873 8.966 3.225 12.234 4.027 3.262.82 8.391 2.032 15.379 3.672l36.352 8.384c11.414 2.564 21.611 5.245 30.588 8.042 8.967 2.797 18.582 6.757 28.838 11.879 10.252 5.135 18.758 10.839 25.521 17.136 6.756 6.279 12.404 14.266 16.951 23.936 4.547 9.682 6.818 20.343 6.818 31.989.006 17.036-3.843 32.354-11.531 45.983z"/></svg>