<?xml version="1.0" encoding="iso-8859-1"?>
<!-- Generator: Adobe Illustrator 19.0.0, SVG Export Plug-In . SVG Version: 6.00 Build 0)  -->
<svg version="1.1" id="Capa_1" xmlns="http://www.w3.org/2000/svg" xmlns:xlink="http://www.w3.org/1999/xlink" x="0px" y="0px"
	 viewBox="0 0 512 512" style="enable-background:new 0 0 512 512;" xml:space="preserve">
<g>
	<g>
		<path d="M512,421V31H0v390h181v30H91v30h330v-30h-90v-30H512z M301,451h-90v-30h90V451z M30,391V61h452v330H30z"/>
	</g>
</g>
<g>
	<g>
		<path d="M406.047,192.233l-103.67-15.056L256,83.211l-46.377,93.965l-103.67,15.055l75.015,73.149l-17.705,103.28L256,319.896
			l92.737,48.766l-17.705-103.28L406.047,192.233z M256,286.001l-52.897,27.816L213.2,254.91l-42.788-41.724l59.133-8.587
			L256,150.996l26.455,53.603l59.133,8.587L298.8,254.91l10.097,58.907L256,286.001z"/>
	</g>
</g>
<g>
</g>
<g>
</g>
<g>
</g>
<g>
</g>
<g>
</g>
<g>
</g>
<g>
</g>
<g>
</g>
<g>
</g>
<g>
</g>
<g>
</g>
<g>
</g>
<g>
</g>
<g>
</g>
<g>
</g>
</svg>
