<svg height="512pt" viewBox="0 -10 512 512" width="512pt" xmlns="http://www.w3.org/2000/svg"><path d="M69.938 79.926c0-11.035 8.945-19.98 19.98-19.98s19.98 8.945 19.98 19.98c0 11.039-8.945 19.984-19.98 19.984s-19.98-8.945-19.98-19.984zm89.917 19.984c11.036 0 19.98-8.945 19.98-19.984 0-11.035-8.944-19.98-19.98-19.98-11.035 0-19.984 8.945-19.984 19.98 0 11.039 8.95 19.984 19.984 19.984zM512 406.984l-84.91 85.102-138.031-134.242a70.722 70.722 0 0 1-17.047-27.664l-.313-.942-21.36-95.402 95.15 21.637.913.304a70.702 70.702 0 0 1 27.543 16.953zm-56.879.43L345.79 301.09a29.3 29.3 0 0 0-2.406-2.16l-28.242 28.222c.66.82 1.359 1.614 2.101 2.36L426.668 435.93zM307.59 431.605l41.09 39.965H59.945C26.891 471.57 0 444.68 0 411.625V59.945C0 26.891 26.89 0 59.945 0H451.59c33.055 0 59.945 26.89 59.945 59.945v290.84l-39.965-38.863V159.855H39.965v251.77c0 11.02 8.96 19.98 19.98 19.98zM39.965 59.945v59.946H471.57V59.945c0-11.02-8.965-19.98-19.98-19.98H59.945c-11.02 0-19.98 8.965-19.98 19.98zm0 0"/></svg>