<svg height="512pt" viewBox="0 -20 512 512" width="512pt" xmlns="http://www.w3.org/2000/svg"><path d="M452 0H60C26.914 0 0 26.914 0 60v352c0 33.086 26.914 60 60 60h392c33.086 0 60-26.914 60-60V60c0-33.086-26.914-60-60-60zM60 40h392c11.027 0 20 8.973 20 20v60H40V60c0-11.027 8.973-20 20-20zm392 392H60c-11.027 0-20-8.973-20-20V160h432v252c0 11.027-8.973 20-20 20zM70 80c0-11.047 8.953-20 20-20s20 8.953 20 20-8.953 20-20 20-20-8.953-20-20zm70 0c0-11.047 8.953-20 20-20s20 8.953 20 20-8.953 20-20 20-20-8.953-20-20zM80 392h156V200H80zm40-152h76v112h-76zm156 36h156v40H276zm0 76h156v40H276zm0-152h156v40H276zm0 0"/></svg>