<svg xmlns="http://www.w3.org/2000/svg" xmlns:xlink="http://www.w3.org/1999/xlink" width="66" height="83"><defs><path id="a" d="M627.352 3493.095c0-.592.029-1.21.082-1.782h10.82a10.789 10.789 0 0 1-2.912-5.967h-6.32a18.586 18.586 0 0 1 9.554-9.348 10.767 10.767 0 0 1 7.474-3.013 10.76 10.76 0 0 1 7.748 3.285 18.58 18.58 0 0 1 8.942 9.073h-5.982a10.81 10.81 0 0 1-2.91 5.967h10.48c.053.573.082 1.19.082 1.782 0 7.219-4.114 13.45-10.123 16.59h7.437c2.008 0 3.782.174 5.351.55-3.125 15.743-16.014 16.75-18.576 16.752a1.513 1.513 0 0 0-.755-.018c-15.397-.179-18.967-12.446-19.77-17.214.769-.07 1.575-.07 2.423-.07h7.086c-6.014-3.138-10.131-9.371-10.131-16.587zm10.9-9.278c0 4.307 3.497 7.805 7.798 7.805 4.298 0 7.796-3.5 7.796-7.805 0-4.308-3.498-7.81-7.796-7.81-4.301 0-7.798 3.5-7.798 7.81zm40.726 72.195h-65.896l-.008-29.313c.021-1.161-.074-13.59 11.89-16.489.84 5.088 4.566 18.895 20.235 20.384-.027.18-.048.373-.053.57-.088 2.328 1.337 4.736 4.234 7.152 2.468 2.06 2.942 4.766 1.274 7.254-2.234 3.325-7.575 5.035-13.743 2.296a4.142 4.142 0 0 0-4.136-4.091 4.143 4.143 0 0 0-4.141 4.142 4.144 4.144 0 0 0 4.141 4.147 4.127 4.127 0 0 0 3.064-1.364c2.479 1.08 4.865 1.556 7.059 1.556 4.556 0 8.277-2.05 10.259-4.997 2.545-3.783 1.822-8.21-1.843-11.266-2.062-1.718-3.179-3.377-3.152-4.677.005-.216.042-.416.098-.592 2.144-.026 18.1-1.137 21.767-19.536 9.472 4.235 8.895 15.511 8.895 15.511zm-32.928-75.805a3.604 3.604 0 0 1 3.601 3.607 3.604 3.604 0 0 1-3.601 3.607 3.604 3.604 0 0 1-3.601-3.607 3.604 3.604 0 0 1 3.6-3.607z"/></defs><use fill="#fff" xlink:href="#a" transform="translate(-613 -3473)"/></svg>