<svg xmlns="http://www.w3.org/2000/svg" xmlns:xlink="http://www.w3.org/1999/xlink" width="70" height="79"><defs><path id="a" d="M1260.44 3489.926c4.294 3.64 5.73 9.597 3.554 14.76l-5.496 13.045c-4.75-11.132-15.889-18.945-28.875-18.945-12.676 0-23.592 7.452-28.524 18.171l-5.16-12.24c-2.184-5.182-.72-11.173 3.61-14.805 8.454-7.09 18.838-11.908 30.074-11.908 11.577 0 22.24 4.648 30.817 11.922zm-24.6-3.009h-3.62v-3.758h-5.054v3.758h-3.802v5.007h3.802v3.756h5.055v-3.756h3.62zm21.313 42.848c0 15.041-12.324 27.231-27.53 27.231-14.395 0-26.207-10.936-27.416-24.867 2.547-9.851 10.246-13.397 15.005-14.662.8-.213 1.648.081 2.133.741.485.66.51 1.548.062 2.233a25.63 25.63 0 0 1-1.985 2.613 1.436 1.436 0 0 0-.095 1.746c.37.54 1.053.77 1.675.564 15.486-5.081 24.52-19.089 24.52-19.089 0-.002.005-.007.007-.01 8.147 4.728 13.624 13.481 13.624 23.5z"/></defs><use fill="#fff" xlink:href="#a" transform="translate(-1195 -3478)"/></svg>