<svg xmlns="http://www.w3.org/2000/svg" xmlns:xlink="http://www.w3.org/1999/xlink" width="86" height="72"><defs><path id="a" d="M378.482 3503.119c3.855 0 6.98 3.1 6.98 6.926a6.858 6.858 0 0 1-.945 3.481 14.688 14.688 0 0 1 3.395-.04l.092.01v-32.51c0-1.638 1.339-2.968 2.99-2.968 1.652 0 2.99 1.33 2.99 2.968v66.035c0 1.64-1.338 2.968-2.99 2.968-1.651 0-2.99-1.329-2.99-2.968v-14.591c0-.82-.668-1.484-1.496-1.484h-77.003a1.489 1.489 0 0 1-1.496-1.484v-4.946c0-.822.669-1.484 1.496-1.484h63.58c.05-.247.097-.491.17-.755.575-2.119 1.888-4.002 3.658-5.483-3.098-.707-5.407-3.46-5.407-6.75 0-3.825 3.123-6.925 6.976-6.925zm-5.607 15.458a2.237 2.237 0 0 1-2.243 2.226H345.59a2.237 2.237 0 0 1-2.243-2.226 2.237 2.237 0 0 1 2.243-2.226h25.043c1.237 0 2.243.999 2.243 2.226zm-31.398.619h-23.448a1.488 1.488 0 0 1-1.495-1.484v-5.317c0-3.758 3.346-6.802 7.476-6.802h43.36c.827 0 1.495.663 1.495 1.484v7.667h-22.903c-2.475 0-4.485 1.997-4.485 4.452z"/></defs><use fill="#fff" xlink:href="#a" transform="translate(-308 -3478)"/></svg>