<svg xmlns="http://www.w3.org/2000/svg" xmlns:xlink="http://www.w3.org/1999/xlink" width="73" height="75"><defs><path id="a" d="M959.507 3483.812h-42.776l.815-4.271c.268-1.403 1.65-2.541 3.085-2.541h34.976c1.436 0 2.817 1.138 3.085 2.54zm-21.388-5.515h-17.204c-.89 0-1.746.704-1.91 1.573l-.507 2.647h19.35zm36.884 31.462v9.912c0 .714-.581 1.294-1.3 1.294h-2.544v15.195c0 .714-.581 1.293-1.3 1.293h-2.6c-.718 0-1.3.578-1.3 1.293v11.96c0 .716-.58 1.294-1.3 1.294h-6.824c-.718 0-1.3-.578-1.3-1.293v-11.961c0-.715-.581-1.293-1.3-1.293h-33.148c-.717 0-1.3.578-1.3 1.293v11.96c0 .716-.582 1.294-1.3 1.294h-6.824c-.718 0-1.3-.578-1.3-1.293v-11.961c0-.715-.582-1.293-1.3-1.293h-2.925c-.717 0-1.3-.579-1.3-1.293v-15.195h-2.542c-.718 0-1.3-.58-1.3-1.294v-9.912c0-.714.582-1.293 1.3-1.293h2.542v-15.948c0-2.856 2.328-5.172 5.2-5.172h54.922c2.871 0 5.2 2.316 5.2 5.172v15.948h2.543c.719 0 1.3.579 1.3 1.293zm-42.31-13.153a.39.39 0 0 0 .389.388h3.268a.39.39 0 0 1 .392.39v3.25a.39.39 0 0 0 .39.39h2.735a.388.388 0 0 0 .389-.39v-3.25a.39.39 0 0 1 .392-.39h3.269a.39.39 0 0 0 .39-.388v-2.721a.39.39 0 0 0-.39-.39h-3.27a.39.39 0 0 1-.391-.387v-3.251a.389.389 0 0 0-.389-.39h-2.736a.39.39 0 0 0-.39.39v3.25a.39.39 0 0 1-.39.389h-3.269a.388.388 0 0 0-.39.389zm-21.493 24.479c0 .714.583 1.293 1.3 1.293h51.997c.719 0 1.3-.579 1.3-1.293v-16.164c0-.715-.581-1.293-1.3-1.293H912.5c-.717 0-1.3.578-1.3 1.293zm11.376 4.403h-9.965a2.594 2.594 0 0 0-2.6 2.586v3.237a2.594 2.594 0 0 0 2.6 2.586h9.965zm27.734 7.329c0-.597-.584-1.08-1.3-1.08h-21.234c-.718 0-1.3.483-1.3 1.08 0 .596.582 1.08 1.3 1.08h21.234c.716 0 1.3-.484 1.3-1.08zm0-6.036c0-.713-.584-1.293-1.3-1.293h-21.234c-.718 0-1.3.58-1.3 1.293v1.617c0 .715.582 1.294 1.3 1.294h21.234c.716 0 1.3-.579 1.3-1.294zm16.68 1.293a2.593 2.593 0 0 0-2.6-2.586h-9.965v8.409h9.966c1.435 0 2.6-1.16 2.6-2.586z"/></defs><use fill="#fff" xlink:href="#a" transform="translate(-902 -3477)"/></svg>